<?xml version="1.0" encoding="UTF-8"?>
<svg version="1.1" xmlns="http://www.w3.org/2000/svg" width="1536" height="1024">
<path d="M0 0 C506.88 0 1013.76 0 1536 0 C1536 337.92 1536 675.84 1536 1024 C1029.12 1024 522.24 1024 0 1024 C0 686.08 0 348.16 0 0 Z " fill="#FDFDFD" transform="translate(0,0)"/>
<path d="M0 0 C0.33040283 0.81283447 0.33040283 0.81283447 0.66748047 1.64208984 C7.7493424 18.93348434 15.56773419 35.13573552 27 50 C28.31599065 51.83082931 29.62843583 53.66421179 30.9375 55.5 C34.67631292 60.63270045 38.61384217 65.56351789 42.68891907 70.43223572 C43.54969321 71.46153217 44.40871084 72.4923006 45.26579285 73.52467346 C52.79796844 82.57886866 60.76443417 91.0799358 69.1184082 99.37915039 C71.07155488 101.32150484 73.0136762 103.27442958 74.95507812 105.22851562 C86.80631269 118.74189401 86.80631269 118.74189401 102 126 C104.22591023 124.55842861 105.94718027 123.21295834 107.875 121.4375 C108.4316333 120.94515869 108.9882666 120.45281738 109.56176758 119.94555664 C111.39160411 118.31495151 113.19723128 116.66045731 115 115 C115.6285791 114.42636719 116.2571582 113.85273438 116.90478516 113.26171875 C126.74504876 104.26661587 136.58145623 95.17964526 145.24609375 85.02734375 C146.46225179 83.62158423 147.70676501 82.24005267 148.97265625 80.87890625 C156.25173694 73.04497731 162.61516293 64.56253331 169 56 C169.45552246 55.39639648 169.91104492 54.79279297 170.38037109 54.17089844 C182.99532024 37.41793981 192.04774123 19.35963687 200 0 C208.22702462 2.25698184 216.08257542 5.27814308 224 8.4375 C225.2065625 8.91509766 226.413125 9.39269531 227.65625 9.88476562 C232.80740785 11.92563197 237.95271871 13.9806553 243.09375 16.046875 C248.87320207 18.36089501 254.68670688 20.58517802 260.5 22.8125 C268.21562208 25.77325968 275.92722085 28.74314866 283.625 31.75 C288.92073315 33.81835919 294.23110174 35.83806029 299.5625 37.8125 C307.73215637 40.83806536 315.80345778 44.10681697 323.86938477 47.39770508 C329.94660995 49.8566895 336.04475657 52.07716266 342.29296875 54.06445312 C345.97514887 55.33701032 349.43163979 56.98772968 352.94921875 58.65234375 C355.92112731 59.96515867 358.90907949 61.08778246 361.96484375 62.18432617 C372.50548096 65.96899398 381.75269863 69.62533244 387.5703125 79.7265625 C390.22730286 85.8100541 390.06107488 93.0525488 388.34375 99.44140625 C384.02095925 108.96272554 376.33943266 113.30183539 367 117 C365.39814119 117.64770516 363.79660452 118.29620734 362.1953125 118.9453125 C357.95968459 120.65496595 353.7159189 122.34308177 349.46801758 124.02197266 C347.06190586 124.97546791 344.65955957 125.93791481 342.2578125 126.90234375 C338.25118119 128.50695168 334.23492609 130.08564821 330.21484375 131.65625 C329.02439453 132.12160156 327.83394531 132.58695313 326.60742188 133.06640625 C324.15741784 134.02345945 321.70689487 134.97918523 319.25585938 135.93359375 C314.10457378 137.94943559 308.9793072 139.97038609 303.9453125 142.265625 C300.9707235 143.61442649 298.16252244 144.63571001 294.9375 145.25 C293.80634766 145.47429687 293.80634766 145.47429687 292.65234375 145.703125 C292.10707031 145.80109375 291.56179688 145.8990625 291 146 C290.69707031 145.41992188 290.39414062 144.83984375 290.08203125 144.2421875 C284.78997958 134.37454654 278.45184449 127.2032145 267.58203125 123.515625 C257.41068628 121.48443357 247.64614752 121.85986145 238.5859375 127.171875 C231.26505233 132.34736482 225.91297066 138.39861023 223 147 C223.00040283 147.63583008 223.00080566 148.27166016 223.0012207 148.92675781 C222.99127614 151.22636983 222.86214397 152.85905032 222 155 C218.97186704 157.28455329 215.60788873 158.46295882 212.0625 159.75 C211.14919922 160.10964844 210.23589844 160.46929687 209.29492188 160.83984375 C207.44916502 161.56351629 205.59795568 162.2734276 203.74169922 162.96972656 C198.70196612 164.86355325 193.7100907 166.8829302 188.73266602 168.93457031 C166.38117184 178.12856097 142.83811825 184.13467105 119 188 C117.89785156 188.18949219 116.79570313 188.37898437 115.66015625 188.57421875 C95.77386276 190.88756559 76.45019769 188.07384036 57 184 C55.79077881 183.7522583 55.79077881 183.7522583 54.55712891 183.49951172 C37.31691975 179.87990956 20.29356265 173.63136606 4 167 C3.02675781 166.61457031 2.05351563 166.22914063 1.05078125 165.83203125 C-0.93200305 165.0311419 -2.9050645 164.20572205 -4.8671875 163.35546875 C-7.15475496 162.36571076 -9.43474916 161.44658376 -11.7578125 160.55078125 C-21.19657894 156.67945452 -21.19657894 156.67945452 -23.33984375 152.19921875 C-23.78063291 150.14654969 -24.15185349 148.07773454 -24.453125 146 C-25.68174146 139.26016111 -30.59703022 133.50166271 -35.91796875 129.3515625 C-46.25695404 122.63995103 -56.92443744 121.13583039 -68.890625 123.59375 C-78.06279858 126.70882782 -85.38034509 134.00657549 -90.16015625 142.2734375 C-91.12934897 144.17037308 -91.12934897 144.17037308 -92 147 C-96.93193853 145.43821946 -101.71808927 143.74097781 -106.48046875 141.71875 C-113.13075709 138.92632153 -119.84092826 136.30258526 -126.5625 133.6875 C-137.06379098 129.58046363 -147.50881475 125.37622494 -157.86376953 120.91308594 C-160.04701613 119.97990396 -162.23911826 119.07048681 -164.43359375 118.1640625 C-183.00566149 110.41240719 -183.00566149 110.41240719 -188 101 C-190.39891967 94.76280885 -191.4100898 88.02039558 -189.16015625 81.60546875 C-185.26132054 73.89968908 -179.64036824 68.87739429 -171.66015625 65.66796875 C-170.59804932 65.23822754 -169.53594238 64.80848633 -168.44165039 64.36572266 C-167.30590576 63.91503418 -166.17016113 63.4643457 -165 63 C-163.84943115 62.54028809 -162.6988623 62.08057617 -161.51342773 61.60693359 C-157.67939185 60.08237501 -153.84057115 58.57049283 -150 57.0625 C-148.55419709 56.49398327 -147.10839637 55.92546099 -145.66259766 55.35693359 C-120.6893399 45.54326929 -95.66935197 35.85095321 -70.61865234 26.23681641 C-62.07422863 22.95689964 -53.53627202 19.66119185 -45.0085144 16.33815002 C-39.93824367 14.3624721 -34.86027674 12.40774092 -29.77734375 10.46484375 C-26.5725901 9.23056203 -23.38212588 7.96148865 -20.19140625 6.69140625 C-19.15330811 6.28003418 -18.11520996 5.86866211 -17.0456543 5.44482422 C-14.9556057 4.61601462 -12.86717974 3.7830997 -10.78051758 2.94580078 C-9.33841919 2.37514893 -9.33841919 2.37514893 -7.8671875 1.79296875 C-7.00206543 1.4477417 -6.13694336 1.10251465 -5.24560547 0.74682617 C-3 0 -3 0 0 0 Z " fill="#424967" transform="translate(668,341)"/>
<path d="M0 0 C5.98459818 2.5183289 12.04491366 4.84729465 18.0920105 7.21060181 C21.57373823 8.57439563 25.04989219 9.95224171 28.52685547 11.328125 C33.45738119 13.27797398 38.39810476 15.19746394 43.35107422 17.08984375 C47.64781579 18.73645362 51.88262769 20.45334966 56.08935547 22.31640625 C61.5312611 24.67337195 67.0208076 26.8116717 72.58349609 28.86499023 C78.6242182 31.10778392 84.60935227 33.47934504 90.58935547 35.87890625 C91.6207666 36.29261475 92.65217773 36.70632324 93.71484375 37.13256836 C98.67772247 39.12545707 103.63908483 41.12210143 108.60009766 43.11962891 C112.45419284 44.67123011 116.30941045 46.2200198 120.16513062 47.76757812 C121.67387277 48.37379044 123.18220831 48.98101592 124.69009399 49.58935547 C133.14147093 52.99891877 141.60425837 56.28173031 150.21337891 59.27612305 C154.3043223 60.74877138 158.29148486 62.43397706 162.29248047 64.1328125 C166.45083915 65.86909053 170.65985977 67.46231265 174.87060547 69.06640625 C178.45775974 70.44861248 182.02442549 71.87825203 185.58935547 73.31640625 C215.03362634 85.13910261 242.63930828 93.64116493 273.46435547 80.94140625 C274.36492676 80.53962158 275.26549805 80.13783691 276.19335938 79.72387695 C279.14005178 78.43857779 282.10343433 77.26521841 285.10888672 76.125 C290.18658897 74.18520768 295.25211677 72.21812182 300.30810547 70.22265625 C300.99886673 69.95013535 301.68962799 69.67761444 302.40132141 69.39683533 C304.52666689 68.55794897 306.65179911 67.71852472 308.77685547 66.87890625 C324.39202283 60.70928968 324.39202283 60.70928968 331.92919922 57.82421875 C338.76141559 55.2052904 345.55058915 52.48312199 352.33935547 49.75390625 C362.51133638 45.67203961 372.6968818 41.6277248 382.90185547 37.62890625 C393.32064088 33.54623253 403.72175746 29.42236222 414.10522461 25.25073242 C416.26718282 24.38278944 418.43006606 23.51719772 420.59326172 22.65234375 C424.73743294 20.99539446 428.88048949 19.33567784 433.02325439 17.67521667 C436.48427071 16.28820218 439.94561262 14.90200121 443.40698242 13.51586914 C445.1899847 12.80166208 446.97286309 12.08714566 448.75561523 11.37231445 C458.90343487 7.30364407 469.06183287 3.27625733 479.27685547 -0.62109375 C480.6016415 -1.13525949 481.92596234 -1.65062796 483.24951172 -2.16796875 C484.26916016 -2.565 485.28880859 -2.96203125 486.33935547 -3.37109375 C487.90363281 -3.98210938 487.90363281 -3.98210938 489.49951172 -4.60546875 C497.65802981 -7.58889309 508.06126468 -8.3420594 516.27685547 -5.12109375 C522.10630644 -2.03556205 526.71703759 3.32376008 529.27685547 9.37890625 C530.64805392 20.33291204 531.67750514 34.06709261 525.03857422 43.4296875 C524.45720703 44.07292969 523.87583984 44.71617187 523.27685547 45.37890625 C522.74705078 45.97058594 522.21724609 46.56226563 521.67138672 47.171875 C514.56536088 54.0078381 504.76197015 57.03611291 495.65576172 60.19921875 C488.98976253 62.5265387 482.58699347 65.21743888 476.21435547 68.25390625 C471.42274635 70.4940669 466.59580728 72.37577568 461.58935547 74.06640625 C449.54898459 78.15669584 437.95201896 83.36137449 426.27685547 88.37890625 C416.86798615 92.40676674 407.46944702 96.36199239 397.86254883 99.89550781 C380.38836717 106.37728623 363.25193436 113.79015677 346.08441162 121.0378418 C337.52972429 124.64653323 328.94419041 128.08560326 320.21826172 131.2578125 C317.79713263 132.18060672 315.56232753 133.17066306 313.27685547 134.37890625 C309.13294606 136.56646358 304.77590761 138.13586202 300.3840332 139.74169922 C295.91347082 141.37954475 291.47673895 143.08373375 287.05419922 144.84765625 C244.49032688 161.76434778 214.02237079 155.29271371 172.78857422 137.83935547 C169.15144693 136.3267515 165.49743458 134.8622177 161.83847046 133.4034729 C157.89911875 131.82785424 153.97267706 130.22111336 150.04638672 128.61328125 C149.18900406 128.26252533 148.3316214 127.91176941 147.44825745 127.55038452 C144.66179395 126.41028921 141.8755709 125.26960763 139.08935547 124.12890625 C137.14160932 123.33184953 135.19385531 122.53481204 133.24609375 121.73779297 C123.51613972 117.75566928 113.78789444 113.76940101 104.06201172 109.77734375 C103.17602798 109.41370728 102.29004425 109.0500708 101.37721252 108.67541504 C97.18174524 106.95331486 92.98653773 105.230586 88.79174805 103.50683594 C81.94679798 100.69529103 75.09925162 97.89367764 68.22363281 95.15771484 C65.77085199 94.17647948 63.33512421 93.15748042 60.90185547 92.12890625 C54.57559817 89.48070552 48.20810076 86.93946055 41.83398438 84.40917969 C37.44139666 82.66131604 33.06632455 80.8790528 28.70654297 79.05078125 C21.72513192 76.13164672 14.69753871 73.33223866 7.66766357 70.53250122 C5.35620004 69.61069905 3.04607092 68.68562626 0.73632812 67.75952148 C-6.02611148 65.04869427 -12.78960184 62.34477976 -19.58251953 59.7109375 C-21.50439605 58.95443093 -23.42627118 58.19792085 -25.34814453 57.44140625 C-26.18587402 57.12526367 -27.02360352 56.80912109 -27.88671875 56.48339844 C-37.48539029 52.66760589 -45.58375785 46.47324981 -49.82080078 36.8984375 C-51.12674757 31.80467967 -51.17164867 26.86861042 -51.22314453 21.62890625 C-51.26439453 20.59507812 -51.30564453 19.56125 -51.34814453 18.49609375 C-51.4360622 9.77026471 -48.85528153 3.67737484 -42.79443359 -2.62744141 C-30.8701479 -13.22503043 -12.3999133 -5.31573639 0 0 Z " fill="#464D6C" transform="translate(528.72314453125,571.62109375)"/>
<path d="M0 0 C7.41795461 3.30864325 15.10987035 5.98529234 22.7734375 8.66015625 C27.17844268 10.22087 31.36760013 11.84687447 35.46484375 14.09375 C37.53975958 15.18801249 37.53975958 15.18801249 40.17578125 16.0703125 C47.36058854 18.76099872 49.77635667 21.4984961 53.015625 28.375 C57.18957503 36.23781938 65.13760282 40.12572236 73.33984375 42.68359375 C80.78473766 44.13692479 88.43276023 43.75638366 95.36328125 40.65625 C101.2821641 39.08008567 106.96662819 42.46960352 112.2109375 44.91015625 C130.3712697 53.25451579 149.25748487 60.54706926 168.4609375 66.09765625 C170.56553444 66.76296334 172.66968712 67.42967711 174.7734375 68.09765625 C181.52336835 70.16709613 188.32006123 71.92752415 195.18742371 73.5559082 C196.66276822 73.90746314 198.13698646 74.26379179 199.6098175 74.62573242 C211.71845977 77.57661912 223.13923787 78.7583318 235.5859375 78.59765625 C236.84837784 78.58984634 236.84837784 78.58984634 238.13632202 78.58187866 C258.07476426 78.43806409 276.96769268 75.66439394 296.03955078 69.82470703 C298.77355925 69.00378777 301.51955602 68.23444693 304.26953125 67.46875 C317.9229209 63.63821568 331.10461809 59.18351676 344.1015625 53.5078125 C347.09637767 52.2506866 350.04554457 51.23290179 353.1484375 50.28515625 C358.64640966 48.4962432 363.65639582 46.15010943 368.76953125 43.46484375 C375.13353088 40.23204277 377.86750675 39.95849032 384.65234375 42.109375 C396.21299203 45.10921501 405.25814667 43.63691137 415.47265625 38.01953125 C421.13621125 34.37708804 423.93612955 31.7237262 426.7734375 25.53515625 C430.51450893 18.36476935 430.51450893 18.36476935 434.0234375 17.09765625 C435.49867852 16.74735771 436.97861596 16.4166672 438.4609375 16.09765625 C440.69940484 15.35426401 442.92783951 14.58033713 445.1484375 13.78515625 C446.98728516 13.13160156 446.98728516 13.13160156 448.86328125 12.46484375 C452.07220186 11.24538423 455.12035874 9.8986799 458.2109375 8.41015625 C464.97612321 5.19984452 471.91706295 2.48844517 478.8984375 -0.21484375 C480.60628418 -0.88229614 480.60628418 -0.88229614 482.34863281 -1.56323242 C483.98010254 -2.18935425 483.98010254 -2.18935425 485.64453125 -2.828125 C486.61962646 -3.20364502 487.59472168 -3.57916504 488.59936523 -3.96606445 C497.34744318 -6.82835256 507.74847714 -7.35035482 516.42578125 -4.01171875 C522.22119397 -0.85260702 526.06322464 4.01548139 528.4609375 10.09765625 C528.90616036 13.35670211 528.93765887 16.56194725 528.8984375 19.84765625 C528.88941406 20.73928467 528.88039063 21.63091309 528.87109375 22.54956055 C528.67048422 30.16506046 527.8441746 36.2667457 522.66015625 42.13671875 C516.70849613 47.75323684 509.42209409 50.15104878 501.91015625 53.09375 C500.86188408 53.50597557 500.86188408 53.50597557 499.79243469 53.92652893 C497.57816255 54.79707702 495.36332958 55.66618679 493.1484375 56.53515625 C490.23550042 57.67923817 487.32280004 58.82392165 484.41015625 59.96875 C483.70365936 60.24630127 482.99716248 60.52385254 482.26925659 60.80981445 C478.66799758 62.22560234 475.07066474 63.65007331 471.48046875 65.09375 C464.16406729 68.02937638 456.8090789 70.86767507 449.4609375 73.72265625 C448.66349121 74.03267578 447.86604492 74.34269531 447.04443359 74.66210938 C436.18843703 78.88232117 425.32459609 83.08136236 414.44970703 87.25268555 C403.16531621 91.58567165 391.90295462 95.97529684 380.640625 100.36523438 C379.89289825 100.65648697 379.14517151 100.94773956 378.37478638 101.24781799 C376.98047092 101.79094874 375.58631245 102.33448279 374.19235229 102.87852478 C370.92017366 104.15290027 367.64201528 105.40689665 364.35107422 106.63208008 C361.03085984 107.87294511 357.74903619 109.18807277 354.4765625 110.55078125 C343.64886558 115.02979821 332.85090091 119.43233083 321.74658203 123.17822266 C311.19684076 126.79028221 300.84932978 130.95434526 290.47485352 135.03637695 C263.67870156 145.56643041 234.66618908 153.25577775 206.4609375 142.09765625 C204.30322905 141.15314991 202.16504309 140.17251205 200.02734375 139.18359375 C196.36854672 137.63542697 192.60414929 136.46122664 188.8269043 135.23706055 C183.01810054 133.32987359 177.29951089 131.20974027 171.5859375 129.03515625 C170.7187207 128.70676758 169.85150391 128.37837891 168.95800781 128.04003906 C164.89819725 126.48478825 160.89492175 124.86724089 156.9375 123.06640625 C152.28903331 120.96902707 147.53719943 119.29788973 142.7109375 117.66015625 C134.16398525 114.71410152 125.71278027 111.60798207 117.32196045 108.23878479 C111.37128733 105.84992314 105.40349753 103.50937276 99.421875 101.19921875 C98.49734528 100.84177582 97.57281555 100.48433289 96.62026978 100.11605835 C94.6758352 99.36450958 92.7312841 98.6132622 90.78662109 97.86230469 C87.86386246 96.73344176 84.94167497 95.60310983 82.01953125 94.47265625 C73.63209433 91.23096699 65.24183279 88.00241505 56.8125 84.87109375 C51.28168068 82.81483113 45.82611269 80.61540439 40.39160156 78.31689453 C35.08428859 76.10890378 29.70707394 74.08175535 24.3359375 72.03515625 C17.56875662 69.45096379 10.81180992 66.85108077 4.09228516 64.14526367 C1.0208248 62.92243603 -2.06297154 61.73391318 -5.1484375 60.546875 C-41.53069072 46.51523548 -41.53069072 46.51523548 -46.5390625 38.09765625 C-47.07402344 37.25203125 -47.60898437 36.40640625 -48.16015625 35.53515625 C-50.04397408 30.83895317 -49.9772677 26.67092384 -49.9140625 21.66015625 C-49.92566406 20.74427734 -49.93726563 19.82839844 -49.94921875 18.88476562 C-49.91475084 10.88246507 -48.18158781 5.06261158 -42.5390625 -0.90234375 C-30.14891992 -10.59897708 -13.04900897 -6.02085853 0 0 Z " fill="#AAB0C2" transform="translate(528.5390625,489.90234375)"/>
<path d="M0 0 C16.02973679 13.27507491 26.14642309 29.930253 28.32910156 50.70849609 C31.07788465 83.49755153 13.62838327 115.52739157 -5.67089844 140.70849609 C-6.36699219 141.62373047 -7.06308594 142.53896484 -7.78027344 143.48193359 C-9.69915917 145.93208108 -11.6691219 148.32560499 -13.67089844 150.70849609 C-14.10869629 151.23507812 -14.54649414 151.76166016 -14.99755859 152.30419922 C-21.11818098 159.65308864 -27.43601165 166.63018396 -34.27636719 173.31396484 C-36.25953414 175.2971318 -38.07915715 177.29559092 -39.85839844 179.45849609 C-43.03649585 183.27406072 -46.59810702 186.8514633 -50.67089844 189.70849609 C-57.64832477 189.70849609 -64.32695621 180.20135319 -69.02905273 175.5402832 C-69.88023682 174.68829346 -70.7314209 173.83630371 -71.60839844 172.95849609 C-72.49503174 172.07105713 -73.38166504 171.18361816 -74.29516602 170.26928711 C-80.17192848 164.33711936 -85.58014644 158.32861266 -90.67089844 151.70849609 C-92.14849595 149.95717099 -93.62772553 148.20722185 -95.10839844 146.45849609 C-117.07254919 119.47831091 -136.69981526 84.51702383 -133.67089844 48.70849609 C-131.64173795 31.31569191 -122.19741045 13.9722087 -108.67089844 2.70849609 C-76.68622867 -21.46889208 -32.92965972 -25.45264464 0 0 Z " fill="#3D4560" transform="translate(820.6708984375,247.29150390625)"/>
<path d="M0 0 C0.93489258 -0.01023193 1.86978516 -0.02046387 2.83300781 -0.03100586 C8.83656283 0.04534672 13.25739166 1.01272876 18.75 3.4375 C19.62527344 3.79070312 20.50054688 4.14390625 21.40234375 4.5078125 C31.64022338 9.23298772 38.99454685 17.24056112 43.75 27.4375 C48.12674485 39.89091835 46.83914052 54.44827806 41.75 66.4375 C41.43272949 67.18692871 41.11545898 67.93635742 40.78857422 68.70849609 C34.82011066 82.55348592 27.31762732 95.06143979 18.75 107.4375 C18.27997559 108.11989746 17.80995117 108.80229492 17.32568359 109.50537109 C12.1003685 117.05599882 6.59480855 124.35189411 0.75 131.4375 C-4.02270205 128.0799085 -6.99951603 124.02050391 -10.3125 119.3125 C-10.87541748 118.52133789 -11.43833496 117.73017578 -12.01831055 116.91503906 C-49.0111395 64.62784363 -49.0111395 64.62784363 -46.0078125 33.96484375 C-44.19977259 23.5040414 -36.99034734 14.0760515 -28.6875 7.8125 C-19.38277922 1.68632618 -11.00024931 0.09376247 0 0 Z " fill="#97D3D5" transform="translate(768.25,261.5625)"/>
<path d="M0 0 C5.95400445 4.07216885 10.69414316 9.08242948 13 16 C13.07051114 18.73865287 13.09357765 21.45027588 13.0625 24.1875 C13.05798828 24.93708984 13.05347656 25.68667969 13.04882812 26.45898438 C13.03706354 28.30602383 13.01912865 30.15302213 13 32 C13.71341553 32.11609619 14.42683105 32.23219238 15.16186523 32.35180664 C18.16237546 33.03708446 20.62451785 34.06702848 23.41015625 35.37109375 C24.468396 35.85819824 25.52663574 36.34530273 26.61694336 36.84716797 C27.75397705 37.37197754 28.89101074 37.89678711 30.0625 38.4375 C58.07020743 51.11457286 87.56726258 61.25162962 118 66 C118.89275635 66.16967285 119.7855127 66.3393457 120.70532227 66.51416016 C156.66582384 71.81696846 197.09611498 63.43152852 230 49 C231.87307204 48.28658409 233.74838088 47.57903252 235.625 46.875 C241.74851698 44.53511953 247.78477675 42.01358518 253.8125 39.4375 C254.69566895 39.06157715 255.57883789 38.6856543 256.48876953 38.29833984 C260.56026702 36.54815555 264.56676519 34.74358919 268.51171875 32.72265625 C272 31 272 31 274 31 C273.94199219 30.02160156 273.88398437 29.04320312 273.82421875 28.03515625 C273.54465202 19.91174587 273.55765712 13.49400334 279 7 C284.94951375 0.65219244 290.83490406 -3.0510387 299.6875 -3.5 C307.72762804 -3.26797623 315.80968526 -0.80836838 321.5 5.125 C326.07361047 11.3223775 328.96081336 19.31349313 328 27 C325.66415597 38.17417277 325.66415597 38.17417277 322 41 C321.34 41 320.68 41 320 41 C319.67 41.99 319.34 42.98 319 44 C318.34 44 317.68 44 317 44 C316.67 44.99 316.34 45.98 316 47 C307.1381423 50.54766297 297.61519453 51.57532049 288.625 48.25 C285.07388794 46.68661733 282.44009495 45.10557539 280 42 C272.21977559 44.42403137 264.84095471 47.55863608 257.375 50.8125 C254.87217888 51.89444977 252.36781643 52.97280611 249.86328125 54.05078125 C248.67299316 54.56334473 247.48270508 55.0759082 246.25634766 55.60400391 C235.99202727 60.00431759 225.73381289 63.87698915 215 67 C213.74058594 67.38929688 212.48117187 67.77859375 211.18359375 68.1796875 C185.86931765 75.96423904 160.53842805 80.87802424 134 80 C132.90171875 79.98066406 131.8034375 79.96132813 130.671875 79.94140625 C90.96604757 78.18967857 46.7503174 61.71081975 11.77197266 43.30102539 C9.1621582 41.70119055 9.1621582 41.70119055 6.921875 42.6171875 C6.28765625 43.07351563 5.6534375 43.52984375 5 44 C-3.84375496 49.96798849 -11.56360181 51.60067457 -22 50 C-30.16098091 46.94741936 -35.34566619 41.49296805 -39.3125 33.875 C-41.94452645 27.45673877 -42.20247695 20.89004064 -40.15234375 14.2578125 C-36.79230934 6.76322727 -31.68647918 2.15624254 -24.6875 -1.9375 C-16.45498931 -4.30957935 -7.77649519 -3.66256158 0 0 Z " fill="#606783" transform="translate(624,475)"/>
<path d="M0 0 C5.95400445 4.07216885 10.69414316 9.08242948 13 16 C13.07029121 18.57265818 13.09370832 21.11641431 13.0625 23.6875 C13.05798828 24.38939453 13.05347656 25.09128906 13.04882812 25.81445312 C13.03706927 27.54300538 13.01913454 29.27151365 13 31 C12.34 31 11.68 31 11 31 C9.89880733 33.67432506 8.98356056 36.08585043 8.4375 38.9375 C6.24982319 43.59820276 2.38218508 45.51726033 -2 48 C-2.598125 48.37640625 -3.19625 48.7528125 -3.8125 49.140625 C-10.04353913 51.58853323 -18.86944378 51.14484401 -25.09765625 48.8671875 C-33.04186632 44.28998049 -38.44348729 37.87980214 -41 29 C-42.21680604 20.65135855 -40.93404874 13.88859945 -36 7 C-26.32747415 -3.72476715 -13.1204926 -6.17946915 0 0 Z " fill="#8B92AA" transform="translate(624,475)"/>
<path d="M0 0 C5.2339889 2.20210508 9.30044892 6.97589783 11.8125 12 C12.54589923 19.14162531 12.14827442 25.11191129 7.8125 31 C3.49953571 35.74910675 -1.17818266 37.71610214 -7.5 38.3125 C-13.90268674 37.76989943 -19.1865548 36.5806152 -23.625 31.6875 C-28.14348265 25.67954523 -29.1510707 19.3833605 -28.1875 12 C-22.64365527 0.69908574 -11.86352941 -3.58449719 0 0 Z " fill="#3D455E" transform="translate(776.1875,286)"/>
<path d="M0 0 C4.26336554 2.21029146 6.83455917 4.9681074 8.73828125 9.30859375 C9.47051363 15.23439186 9.63304343 20.41965137 7.05078125 25.87109375 C3.28387468 29.8416169 0.11146908 33.06275125 -5.56640625 33.4765625 C-11.91591849 33.52481107 -15.91604703 33.31916951 -20.88671875 29.05859375 C-25.32113581 23.92400557 -26.9494784 19.58595116 -26.74609375 12.84375 C-25.7168622 7.45688489 -22.26598396 3.78042302 -17.953125 0.61328125 C-12.57558754 -1.99353662 -5.67209244 -1.73395572 0 0 Z " fill="#FAFAFB" transform="translate(933.26171875,482.69140625)"/>
<path d="M0 0 C5.66903861 3.0444837 9.08390172 6.78329401 11.375 12.8125 C12.14236513 18.73217383 10.67745417 22.98038148 7.375 27.8125 C3.12105469 32.41904505 -0.30079958 33.61881663 -6.375 34.125 C-11.10616342 34.04555882 -14.80523446 32.58204175 -18.625 29.8125 C-23.44064674 23.76207204 -24.46320282 18.36813106 -23.625 10.8125 C-21.23260989 5.93570478 -17.90931045 3.00294396 -13.625 -0.1875 C-8.7438251 -1.8145583 -4.88094987 -1.59893185 0 0 Z " fill="#FBFBFC" transform="translate(616.625,482.1875)"/>
<path d="M0 0 C0 3.50722636 -1.20347464 5.26148088 -3.02734375 8.18359375 C-5.22623938 12.2899651 -5.1085189 16.14811018 -5.0625 20.75 C-5.05347656 21.92046875 -5.04445313 23.0909375 -5.03515625 24.296875 C-5.02355469 25.18890625 -5.01195312 26.0809375 -5 27 C-5.66 27.33 -6.32 27.66 -7 28 C-7.66 27.34 -8.32 26.68 -9 26 C-8.34 26 -7.68 26 -7 26 C-7.05800781 25.02160156 -7.11601563 24.04320312 -7.17578125 23.03515625 C-7.45645227 14.87965825 -7.24408274 8.65839597 -2 2 C-1.34 1.34 -0.68 0.68 0 0 Z " fill="#848BA3" transform="translate(905,480)"/>
<path d="M0 0 C0 0.33 0 0.66 0 1 C-0.89307861 1.08302368 -0.89307861 1.08302368 -1.80419922 1.16772461 C-4.49487215 1.42018865 -7.18492286 1.67876816 -9.875 1.9375 C-10.81214844 2.02451172 -11.74929688 2.11152344 -12.71484375 2.20117188 C-13.61074219 2.28818359 -14.50664063 2.37519531 -15.4296875 2.46484375 C-16.67081299 2.58267212 -16.67081299 2.58267212 -17.93701172 2.70288086 C-20.0581666 2.89777363 -20.0581666 2.89777363 -22 4 C-24.00800456 3.71887936 -26.01014051 3.38932033 -28 3 C-28 2.67 -28 2.34 -28 2 C-18.57667045 0.00111191 -9.57293998 -0.21867122 0 0 Z " fill="#9296A7" transform="translate(775,230)"/>
<path d="M0 0 C0 3 0 3 -1.96875 5.26171875 C-2.8040625 6.06222656 -3.639375 6.86273438 -4.5 7.6875 C-5.3353125 8.49574219 -6.170625 9.30398438 -7.03125 10.13671875 C-7.6809375 10.75160156 -8.330625 11.36648438 -9 12 C-9.66 11.34 -10.32 10.68 -11 10 C-9.54474941 8.51780033 -8.085701 7.03932861 -6.625 5.5625 C-5.81289063 4.73878906 -5.00078125 3.91507813 -4.1640625 3.06640625 C-2 1 -2 1 0 0 Z " fill="#464D67" transform="translate(714,249)"/>
<path d="M0 0 C0 3 0 3 -2.5 5.6875 C-3.325 6.450625 -4.15 7.21375 -5 8 C-5.99 7.67 -6.98 7.34 -8 7 C-5.36 4.69 -2.72 2.38 0 0 Z " fill="#4C5570" transform="translate(490,410)"/>
<path d="M0 0 C0.66 0.33 1.32 0.66 2 1 C1.34 2.65 0.68 4.3 0 6 C-0.66 6 -1.32 6 -2 6 C-2.33 6.99 -2.66 7.98 -3 9 C-3.33 8.34 -3.66 7.68 -4 7 C-3.22265625 5.2734375 -3.22265625 5.2734375 -2.0625 3.375 C-1.381875 2.26125 -0.70125 1.1475 0 0 Z " fill="#6F7590" transform="translate(635,506)"/>
</svg>
